<svg width="257" height="300" viewBox="0 0 257 300" fill="none" xmlns="http://www.w3.org/2000/svg">
<path d="M121.007 1.83154L5.21919 63.2992C2.00746 65.0041 0 68.3427 0 71.9799V226.276C0 232.509 3.50214 238.211 9.05946 241.03L122.603 298.62C126.226 300.458 130.508 300.458 134.13 298.62L247.675 241.03C253.232 238.211 256.735 232.508 256.735 226.276V71.9799C256.735 68.3427 254.727 65.0041 251.514 63.2992L135.727 1.83154C131.126 -0.610513 125.61 -0.610513 121.007 1.83154Z" fill="#FFCE94"/>
<path d="M128.368 300C130.344 300 132.321 299.541 134.131 298.622L247.676 241.032C253.233 238.213 256.736 232.51 256.736 226.278V71.98C256.736 70.3736 256.325 68.8363 255.611 67.4614L128.368 135.233V300Z" fill="#FCB043"/>
<path d="M128.368 135.233L1.12507 67.4604C0.410224 68.8353 0 70.3726 0 71.979V226.276C0 232.509 3.50214 238.211 9.05946 241.03L122.603 298.62C124.415 299.539 126.391 299.998 128.367 299.998V135.233H128.368Z" fill="#E2791B"/>
<path d="M173.733 22.0068L44.9572 90.5864V112.53C44.9572 114.636 46.1188 116.571 47.977 117.562L70.3565 129.49C72.1325 130.436 74.276 129.15 74.276 127.137V106.656L203.252 37.6776L173.733 22.0068Z" fill="#DEF2FC"/>
<path d="M146.918 256.212L181.272 239.782C185.671 237.679 188.426 233.19 188.31 228.316L188.307 228.164C188.212 224.143 183.943 221.605 180.365 223.443L146.919 240.62V256.212H146.918V256.212Z" fill="#403A46"/>
<path d="M146.918 280.17L165.783 271.406C170.25 269.329 173.064 264.805 172.947 259.88C172.852 255.845 168.559 253.308 164.978 255.173L146.918 264.575V280.17Z" fill="#403A46"/>
<path d="M44.9562 90.8066V112.53C44.9562 114.636 46.1178 116.571 47.976 117.562L70.3556 129.49C72.1315 130.436 74.275 129.149 74.275 127.137V106.656L74.4934 106.539C66.9133 102.502 54.6015 95.9436 44.9562 90.8066Z" fill="#B6C8CE"/>
</svg>
