<svg width="280" height="276" viewBox="0 0 280 276" fill="none" xmlns="http://www.w3.org/2000/svg">
<path d="M141.449 41.7418C141.449 41.7418 164.014 -5.00778 217.907 0.441962C220.311 0.709346 222.49 1.98051 223.906 3.94174C229.83 11.8349 232.871 21.5189 232.523 31.3821C231.505 49.3932 165.001 63.2671 165.001 63.2671L150.906 60.4674L141.449 41.7418Z" fill="#F6C863"/>
<path d="M197.677 48.9205C183.919 54.0628 169.355 56.7091 154.669 56.736C174.285 39.0041 199.265 28.3351 225.638 26.4227C228.746 26.1672 229.908 29.7234 227.769 31.9946C222.95 37.0974 210.7 43.9504 197.677 48.9205V48.9205Z" fill="#EAB54E"/>
<path d="M141.439 41.7418C141.439 41.7418 118.874 -5.00778 64.9811 0.441962C62.5771 0.709346 60.398 1.98051 58.9822 3.94174C53.0578 11.8349 50.017 21.5189 50.3652 31.3821C51.384 49.3932 117.887 63.2671 117.887 63.2671L131.982 60.4674L141.439 41.7418Z" fill="#F6C863"/>
<path d="M85.2108 48.9205C98.9682 54.0628 113.532 56.7091 128.219 56.736C117.248 46.9762 104.628 39.2446 90.9511 33.9019C80.1174 29.8611 68.7752 27.3445 57.2495 26.4227C54.1417 26.1672 52.9795 29.7234 55.118 31.9946C59.9202 37.0974 72.2048 43.9504 85.2108 48.9205V48.9205Z" fill="#EAB54E"/>
<path d="M140.011 74.2569C149.351 74.2569 156.923 66.6851 156.923 57.3448C156.923 48.0045 149.351 40.4326 140.011 40.4326C130.67 40.4326 123.098 48.0045 123.098 57.3448C123.098 66.6851 130.67 74.2569 140.011 74.2569Z" fill="#EAB54E"/>
<path d="M3.46847 57.3413H276.532C278.447 57.3413 280 58.8943 280 60.8098V105.911C280 107.826 278.447 109.379 276.532 109.379H3.46847C1.55295 109.379 0 107.826 0 105.911V60.8098C0 58.8943 1.55295 57.3413 3.46847 57.3413V57.3413Z" fill="#EF5261"/>
<path d="M266.203 99.8389V271.574C266.198 273.487 264.648 275.036 262.735 275.042H17.2829C15.3699 275.036 13.8201 273.487 13.8144 271.574V99.8389H266.203Z" fill="#EF5261"/>
<path d="M13.8144 109.38H266.207V121.521H13.8144V109.38Z" fill="#DA364C"/>
<path d="M119.707 57.3413H160.31V275.038H119.707V57.3413Z" fill="#F6C863"/>
<path d="M119.696 109.38H160.321V121.521H119.696V109.38Z" fill="#EAB54E"/>
</svg>
