<svg width="126" height="113" viewBox="0 0 126 113" fill="none" xmlns="http://www.w3.org/2000/svg">
<path d="M51.3444 99.0865C49.4821 98.5875 47.7349 97.6468 46.2918 96.3661C41.9304 92.4956 33.5426 84.4549 26.3756 74.0888C17.0521 60.6039 12.8459 47.6841 13.874 35.6883C14.6727 26.3696 19.3676 17.8962 26.7551 12.4406C33.5967 7.38815 41.8581 5.57793 50.0178 7.34356C50.4976 7.4473 50.9805 7.56429 51.4529 7.69087C58.9992 9.71289 65.3437 14.5299 69.3178 21.2546C70.0355 22.4693 70.6619 23.722 71.1947 25.0033C72.2971 24.1601 73.4658 23.3882 74.695 22.6949C81.4985 18.8585 89.4019 17.8593 96.9484 19.8813C97.4208 20.0079 97.8976 20.1483 98.3649 20.2981C106.314 22.8489 112.564 28.5474 115.963 36.3442C119.632 44.7625 119.462 54.4481 115.494 62.9174C110.386 73.82 100.284 82.906 85.4669 89.9225C74.0774 95.3159 62.7933 98.0861 57.0804 99.2571C55.1901 99.6446 53.2066 99.5855 51.3444 99.0865V99.0865Z" fill="url(#paint0_linear_124_82)"/>
<path d="M115.963 36.344C114.689 33.4214 113.014 30.7939 111 28.5162C113.692 36.3533 113.22 45.047 109.617 52.7379C104.51 63.6405 94.4069 72.7265 79.5901 79.743C68.2005 85.1364 56.9165 87.9066 51.2036 89.0776C49.3132 89.4651 47.3297 89.4062 45.4674 88.9073C43.6052 88.4083 41.858 87.4675 40.4149 86.1868C36.0535 82.3164 27.6657 74.2756 20.4987 63.9096C20.1916 63.4655 19.891 63.0221 19.5949 62.5792C21.4291 66.3632 23.6885 70.2024 26.3757 74.0889C33.5428 84.4549 41.9305 92.4957 46.2919 96.3661C47.7352 97.6469 49.4824 98.5876 51.3445 99.0866C53.2067 99.5856 55.1902 99.6446 57.0804 99.2569C62.7933 98.0859 74.0774 95.3157 85.4669 89.9223C100.284 82.9058 110.386 73.8198 115.494 62.9172C119.462 54.4479 119.633 44.7624 115.963 36.344V36.344Z" fill="url(#paint1_linear_124_82)"/>
<path d="M98.3648 20.2981C97.8974 20.1483 97.4207 20.0079 96.9483 19.8813C89.4018 17.8593 81.4986 18.8586 74.6949 22.6951C73.4659 23.3882 72.2973 24.16 71.1951 25.0032L51.3445 99.0866C53.2068 99.5856 55.1902 99.6447 57.0804 99.2569C62.7933 98.0859 74.0774 95.3157 85.4669 89.9223C100.284 82.9058 110.386 73.8198 115.494 62.9172C119.461 54.4479 119.632 44.7623 115.963 36.344C112.564 28.5474 106.314 22.8489 98.3648 20.2981V20.2981Z" fill="url(#paint2_linear_124_82)"/>
<defs>
<linearGradient id="paint0_linear_124_82" x1="60.1874" y1="32.2281" x2="84.0552" y2="86.6221" gradientUnits="userSpaceOnUse">
<stop stop-color="#FF7044"/>
<stop offset="1" stop-color="#F82814"/>
</linearGradient>
<linearGradient id="paint1_linear_124_82" x1="71.9786" y1="70.6195" x2="78.3252" y2="106.342" gradientUnits="userSpaceOnUse">
<stop stop-color="#F82814" stop-opacity="0"/>
<stop offset="1" stop-color="#C0272D"/>
</linearGradient>
<linearGradient id="paint2_linear_124_82" x1="73.6407" y1="49.8112" x2="39.3289" y2="-10.974" gradientUnits="userSpaceOnUse">
<stop stop-color="#F82814" stop-opacity="0"/>
<stop offset="1" stop-color="#C0272D"/>
</linearGradient>
</defs>
</svg>
