<svg width="83" height="94" viewBox="0 0 83 94" fill="none" xmlns="http://www.w3.org/2000/svg">
<rect x="21.0957" width="63.1499" height="80.2836" rx="13" transform="rotate(15 21.0957 0)" fill="url(#paint0_linear_124_86)"/>
<path d="M24.9532 17.758C25.373 16.1911 26.9836 15.2613 28.5505 15.6811L67.7974 26.1973C69.3643 26.6171 70.2941 28.2277 69.8743 29.7946C69.4544 31.3615 67.8438 32.2914 66.2769 31.8715L27.0301 21.3553C25.4632 20.9355 24.5333 19.3249 24.9532 17.758Z" fill="#4B4B4B"/>
<path d="M21.4056 30.9979C21.8254 29.431 23.436 28.5012 25.0029 28.921L64.2497 39.4372C65.8166 39.857 66.7465 41.4676 66.3266 43.0345C65.9068 44.6014 64.2962 45.5313 62.7293 45.1114L23.4825 34.5952C21.9156 34.1754 20.9857 32.5648 21.4056 30.9979Z" fill="#4B4B4B"/>
<path d="M17.8579 44.2378C18.2778 42.6709 19.8884 41.7411 21.4553 42.1609L53.6093 50.7766C55.1762 51.1964 56.1061 52.807 55.6862 54.3739C55.2664 55.9408 53.6558 56.8707 52.0889 56.4508L19.9348 47.8351C18.368 47.4153 17.4381 45.8047 17.8579 44.2378Z" fill="#4B4B4B"/>
<path d="M14.3103 57.4777C14.7302 55.9108 16.3407 54.981 17.9076 55.4008L41.5503 61.7358C43.1172 62.1557 44.0471 63.7663 43.6272 65.3332C43.2074 66.9001 41.5968 67.8299 40.0299 67.4101L16.3872 61.0751C14.8203 60.6552 13.8905 59.0446 14.3103 57.4777Z" fill="#4B4B4B"/>
<defs>
<linearGradient id="paint0_linear_124_86" x1="78.616" y1="-8.45939e-07" x2="21.0957" y2="84.1999" gradientUnits="userSpaceOnUse">
<stop stop-color="#EAEAEA"/>
<stop offset="1" stop-color="#B3B3B3"/>
</linearGradient>
</defs>
</svg>
