<svg width="300" height="200" viewBox="0 0 300 200" fill="none" xmlns="http://www.w3.org/2000/svg">
<path d="M292.75 188.751C286.816 195.876 278.024 199.997 268.75 200.001H31.2503C21.9773 199.997 13.1847 195.876 7.25037 188.751L121.875 93.2505L133.751 101.376C143.533 108.126 156.469 108.126 166.251 101.376L178.126 93.2505L292.75 188.751Z" fill="#1E88E5"/>
<path d="M294.5 13.6258L178.125 93.2505L166.25 101.376C156.468 108.126 143.532 108.126 133.75 101.376L121.875 93.2505L5.50073 13.5004C11.3566 5.05648 20.9747 0.0139077 31.2509 0.000431136H268.75C279.073 -0.054061 288.739 5.05999 294.5 13.6258Z" fill="#64B5F6"/>
<path d="M121.875 93.2505L7.25035 188.751C2.55876 183.143 -0.00823358 176.062 0.000555472 168.751V31.2508C-0.0375304 24.9092 1.88376 18.71 5.50074 13.501L121.875 93.2505Z" fill="#2196F3"/>
<path d="M300 31.2505V168.751C300.008 176.062 297.442 183.143 292.75 188.75L178.125 93.2502L294.5 13.6255C298.099 18.797 300.019 24.9499 300 31.2505Z" fill="#2196F3"/>
</svg>
