<svg width="109" height="101" viewBox="0 0 109 101" fill="none" xmlns="http://www.w3.org/2000/svg">
<path d="M84.9857 0.89671L23.4083 17.3963C21.9792 17.7792 21.1575 19.2025 21.5404 20.6316L38.6325 84.4203C39.3846 87.227 37.7037 90.1387 34.8968 90.8908C33.4678 91.2737 32.646 92.697 33.0289 94.126C33.2204 94.8404 30.1185 96.3279 27.0127 97.5975C28.3879 97.8308 29.7831 97.7305 31.1611 97.3612L95.29 80.1779C102.332 78.291 106.516 71.044 104.629 64.0018L88.2209 2.76457C87.838 1.33554 86.4147 0.5138 84.9857 0.89671Z" fill="url(#paint0_linear_124_76)"/>
<path d="M16.6693 73.8969C15.2602 74.2745 14.4239 75.723 14.8014 77.1321L18.2199 89.8899C19.3411 94.0744 22.9281 97.0511 26.9614 97.6113C27.0261 97.6486 27.0124 97.5976 27.0124 97.5976C28.3049 97.817 29.6152 97.7414 30.9124 97.425C36.6946 96.014 40.0288 89.6324 38.4883 83.8832L34.5301 69.1111L16.6693 73.8969ZM42.1717 56.1246L62.5841 50.6551C63.9944 50.2772 64.8299 48.8302 64.452 47.4199L58.9825 27.0075C58.6046 25.5971 57.1576 24.7617 55.7472 25.1396L35.3348 30.6091C33.9245 30.987 33.0891 32.434 33.467 33.8443L38.9365 54.2567C39.3144 55.667 40.7614 56.5025 42.1717 56.1246ZM67.4909 27.4624L82.8002 23.3603C84.2105 22.9824 85.046 21.5353 84.6681 20.125C84.2902 18.7147 82.8432 17.8793 81.4328 18.2572L66.1235 22.3593C64.7132 22.7372 63.8778 24.1842 64.2557 25.5945C64.6336 27.0048 66.0806 27.8403 67.4909 27.4624ZM84.1676 28.4634L68.8583 32.5655C67.448 32.9434 66.6125 34.3904 66.9904 35.8007C67.3683 37.211 68.8153 38.0465 70.2257 37.6686L85.535 33.5665C86.9453 33.1886 87.7807 31.7415 87.4028 30.3312C87.0249 28.9209 85.5779 28.0855 84.1676 28.4634ZM86.9023 38.6696L71.593 42.7717C70.1827 43.1496 69.3473 44.5966 69.7252 46.0069C70.1031 47.4172 71.5501 48.2527 72.9604 47.8748L88.2697 43.7727C89.68 43.3948 90.5155 41.9477 90.1376 40.5374C89.7597 39.1271 88.3127 38.2917 86.9023 38.6696ZM89.6371 48.8758L43.5391 61.2277C42.1287 61.6056 41.2933 63.0526 41.6712 64.4629C42.0491 65.8732 43.4961 66.7087 44.9064 66.3308L91.0044 53.9789C92.4148 53.601 93.2502 52.1539 92.8723 50.7436C92.4944 49.3333 91.0474 48.4979 89.6371 48.8758ZM92.3718 59.082L46.2738 71.4339C44.8635 71.8118 44.0281 73.2588 44.406 74.6691C44.7838 76.0794 46.2309 76.9149 47.6412 76.537L93.7392 64.1851C95.1495 63.8072 95.9849 62.3601 95.6071 60.9498C95.2292 59.5395 93.7821 58.7041 92.3718 59.082Z" fill="url(#paint1_linear_124_76)"/>
<defs>
<linearGradient id="paint0_linear_124_76" x1="67.6397" y1="87.5868" x2="47.1292" y2="11.0403" gradientUnits="userSpaceOnUse">
<stop stop-color="#5558FF"/>
<stop offset="1" stop-color="#00C0FF"/>
</linearGradient>
<linearGradient id="paint1_linear_124_76" x1="60.6736" y1="89.453" x2="44.2653" y2="28.2162" gradientUnits="userSpaceOnUse">
<stop stop-color="#ADDCFF"/>
<stop offset="0.5028" stop-color="#EAF6FF"/>
<stop offset="1" stop-color="#EAF6FF"/>
</linearGradient>
</defs>
</svg>
