<svg width="117" height="117" viewBox="0 0 117 117" fill="none" xmlns="http://www.w3.org/2000/svg">
<path d="M14.5927 44.5852C22.2572 20.3548 48.1133 6.92522 72.3445 14.5899C96.5749 22.2543 110.004 48.1104 102.34 72.3409C94.6754 96.572 68.8192 110.002 44.5888 102.337C20.3576 94.6725 6.92811 68.8163 14.5927 44.5852Z" fill="url(#paint0_linear_124_68)"/>
<path d="M46.802 45.4107C45.3543 44.9528 44.5519 43.4079 45.0096 41.9608L45.2621 41.1625C45.6889 39.8133 44.9388 38.369 43.5895 37.9422C42.241 37.5156 40.7967 38.2658 40.3699 39.615L40.1174 40.4133C39.6596 41.8604 38.1148 42.6628 36.667 42.2049C35.2192 41.7469 34.4168 40.2021 34.8746 38.755L35.1271 37.9567C36.4681 33.7172 41.0083 31.3591 45.2477 32.7001C49.4877 34.0413 51.8452 38.5813 50.5043 42.8207L50.2517 43.619C49.794 45.0661 48.2492 45.8685 46.802 45.4107Z" fill="#282D35"/>
<path d="M83.6978 56.2364C82.25 55.7785 81.4476 54.2336 81.9054 52.7865L82.1579 51.9882C82.5847 50.639 81.8345 49.1947 80.4853 48.7679C79.1367 48.3413 77.6924 49.0915 77.2656 50.4407L77.0131 51.239C76.5554 52.6861 75.0105 53.4885 73.5627 53.0306C72.115 52.5726 71.3126 51.0278 71.7703 49.5806L72.0228 48.7823C73.3638 44.5429 77.904 42.1848 82.1434 43.5258C86.3835 44.867 88.741 49.407 87.4 53.6464L87.1475 54.4447C86.6898 55.8918 85.1449 56.6942 83.6978 56.2364V56.2364Z" fill="#282D35"/>
<path d="M29.751 54.9533C34.1573 56.347 38.2655 55.7822 38.9267 53.6916C39.588 51.601 36.552 48.7764 32.1457 47.3826C27.7393 45.9888 23.6312 46.5536 22.9699 48.6442C22.3086 50.7348 25.3446 53.5595 29.751 54.9533Z" fill="#F97E58"/>
<path d="M83.1118 71.8317C87.5182 73.2255 91.6263 72.6606 92.2876 70.57C92.9489 68.4794 89.9129 65.6548 85.5065 64.261C81.1001 62.8672 76.992 63.4321 76.3307 65.5226C75.6694 67.6132 78.7054 70.4379 83.1118 71.8317Z" fill="#F97E58"/>
<path d="M49.8104 85.1679C40.9175 82.355 35.9711 72.8315 38.784 63.9386C39.0407 63.1271 39.9066 62.6773 40.7177 62.9339L70.0353 72.2074C70.8468 72.4641 71.2965 73.3301 71.0399 74.1415C68.2269 83.0344 58.7033 87.9809 49.8104 85.1679Z" fill="#282D35"/>
<path d="M53.5402 73.3767C48.7907 71.8743 43.6965 72.5256 39.1689 75.2057C40.9722 79.7964 44.7526 83.5678 49.8105 85.1676C54.8684 86.7675 60.13 85.8563 64.2453 83.1377C62.0826 78.3414 58.2896 74.879 53.5402 73.3767Z" fill="url(#paint1_linear_124_68)"/>
<defs>
<linearGradient id="paint0_linear_124_68" x1="14.5926" y1="44.5856" x2="102.34" y2="72.3412" gradientUnits="userSpaceOnUse">
<stop stop-color="#FFE83E"/>
<stop offset="1" stop-color="#FFB600"/>
</linearGradient>
<linearGradient id="paint1_linear_124_68" x1="39.1371" y1="75.3061" x2="64.2136" y2="83.2382" gradientUnits="userSpaceOnUse">
<stop stop-color="#E84D00"/>
<stop offset="0.3627" stop-color="#D43917"/>
<stop offset="0.7208" stop-color="#C62C27"/>
<stop offset="1" stop-color="#C1272D"/>
</linearGradient>
</defs>
</svg>
